<svg xmlns="http://www.w3.org/2000/svg" height="800" width="1200" viewBox="-30 -9.95 260 59.7"><path d="M41.4 14.2c.7 0 1.4.3 1.4.8v23.2c0 .5-.7.8-1.4.8v.5h6.7V39c-.7 0-1.4-.3-1.4-.8V15c0-.5.7-.8 1.4-.8v-.5h-6.7zm85.4 11.5c0-1.6 1.8-2.5 3.7-2.5 3 0 4.8.5 5.3 2.6h.6l-.1-2.7c-1.8-.7-3.9-1.1-5.4-1.1-5.2 0-7.3 2.7-7.3 4.8 0 6 10.3 4.6 10.3 9 0 1.3-1 2.6-3.8 2.6-3.4 0-5.2-1.1-6-3.4l-.5.1.2 3.2c1.6.7 3.9 1.3 5.8 1.3 5.6 0 8.1-2.6 8.1-5.1 0-5.8-10.9-4.4-10.9-8.8m-34.4-2.8c1.1 0 1.8.6 1.4 1.5l-5.1 9.9-5.1-10c-.2-.8.5-1.3 1.4-1.3v-.5h-8.2v.5c1 0 1.7.4 2.5 1.7l8.3 15.1 8.6-15.4c.7-1.2 1.6-1.4 2.2-1.4v-.5h-5.9v.4zm-19 15.3V26.9c0-3.2-3.4-5-7-5-3 0-5.7 1.7-6.8 2.6v-2.4c0-.3-.2-.4-.3-.4-2.2.8-3.2 1.2-5.4 1.9v.4c1.2.1 1.5.7 1.6 1.6v12.6c0 .6-.7.8-1.4.8v.5H61V39c-.7 0-1.4-.3-1.4-.8V25.9c.9-.9 2.8-1.9 4.8-1.9 4.1 0 5 2.2 5 4.2v10c0 .5-.7.7-1.4.7v.5h6.7V39c-.6 0-1.3-.2-1.3-.8m45.6-8.7c0-5.4-4.9-7.5-8.9-7.5-7.2 0-10.7 4.8-10.7 8.7 0 1.4.4 3.1 1.2 4.4.9 1.5 2.1 2.6 3.7 3.4 1.6.8 3.4 1.2 5.4 1.2 1.8 0 3.4-.2 4.8-.7 1.4-.5 2.7-1.3 4.1-2.4v-1.3c-1.4 1-2.7 1.6-3.8 2-1.1.3-2.3.5-3.7.5-2 0-3.8-.6-5.3-2s-2.1-3.6-2.2-5.2v-1H119zm-9.4-6.3c2.6 0 5.1 1.3 5.1 4.9H104c.3-2.5 2.2-4.9 5.6-4.9m68.4 6.3c0-5.4-4.9-7.5-8.9-7.5-7.2 0-10.7 4.8-10.7 8.7 0 1.4.4 3.1 1.2 4.4.9 1.5 2.1 2.6 3.7 3.4 1.6.8 3.4 1.2 5.4 1.2 1.8 0 3.4-.2 4.8-.7 1.4-.5 2.7-1.3 4.1-2.4v-1.3c-1.4 1-2.7 1.6-3.8 2-1.1.3-2.3.5-3.7.5-2 0-3.8-.6-5.3-2s-2.1-3.6-2.2-5.2v-1H178zm-9.4-6.3c2.6 0 5.1 1.3 5.1 4.9H163c.3-2.5 2.2-4.9 5.6-4.9m-15.9 15c-1.4.1-4.3-.4-4.3-3.7V24.1h6.6v-1.5h-6.5v-3.3h-4.1v3.4h-2.6v1.5h2.6v10.3c0 3.5 2.8 5.2 6.5 5.2 1.3 0 2.7-.5 3.5-1 .4-.2.8-.5 1.3-.9l-.1-.6c-.5.3-1.8.9-2.9 1m39.8-15c2.9 0 5.6 1.6 6.6 3.5h.9v-3.2s-3.2-1.7-7.3-1.7c-8 0-11.2 5.3-11.2 9 0 .7.1 1.5.3 2.3.1.2.1.4.2.6.3.9.8 1.8 1.5 2.6.7.9 1.6 1.6 2.7 2.2 1.3.7 2.7 1.1 4.2 1.2.5.1 1 .1 1.6.1 1.6 0 2.9-.3 4-.7 1.3-.5 2.6-1.2 3.9-2.4v-1.4c-1.1.8-2.2 1.4-3.1 1.7-1 .4-2.2.6-3.6.6-5 0-7.4-3.5-7.4-7.2 0-3.4 2-7.2 6.7-7.2" fill="#0b1742"/><path d="M16.3 13.7V0h-1.2v3c-5.9.2-10.8 4-12 8.9h3.2c1.1-4 4.6-7 8.8-7.2v9.1H0V15h2.7c.4 5.8 5.7 10.5 12.3 10.8v2.9h1.2V15h9.1c-.3 4.3-3.3 7.8-7.4 8.8v1.8c5.8-.9 10.2-5.3 10.6-10.6h2.7v-1.3zM15.1 24c-4.9-.3-8.8-4.2-9.1-9.1h9.1zm10-12.1h3.2C27.2 7.4 23.2 4 18.1 3.1v1.8c3.4.9 6.1 3.6 7 7" fill="#5e9ad3"/></svg>